<svg width="16" height="16" viewBox="0 0 16 16" fill="none" xmlns="http://www.w3.org/2000/svg">
<g clip-path="url(#clip0_114_436)">
<path fill-rule="evenodd" clip-rule="evenodd" d="M12.3536 4.97986C12.1584 4.7846 11.8418 4.7846 11.6465 4.97986C11.4513 5.17513 11.4513 5.49171 11.6465 5.68697L13.4596 7.50006L5.33341 7.50006C5.05727 7.50006 4.83341 7.72391 4.83341 8.00006C4.83341 8.2762 5.05727 8.50006 5.33341 8.50006L13.4596 8.50006L11.6465 10.3132C11.4513 10.5085 11.4513 10.825 11.6465 11.0203C11.8418 11.2156 12.1584 11.2156 12.3536 11.0203L15.0203 8.35361C15.1141 8.25984 15.1667 8.13266 15.1667 8.00005C15.1667 7.86745 15.1141 7.74027 15.0203 7.6465L12.3536 4.97986ZM9.68733 4.22662C9.90279 4.39934 10.2175 4.36469 10.3902 4.14923C10.5629 3.93377 10.5283 3.61909 10.3128 3.44637C9.31423 2.64589 8.04575 2.16675 6.66673 2.16675C3.44507 2.16675 0.833398 4.77842 0.833398 8.00008C0.833397 11.2217 3.44507 13.8334 6.66673 13.8334C8.04575 13.8334 9.31422 13.3543 10.3128 12.5538C10.5283 12.3811 10.5629 12.0664 10.3902 11.8509C10.2175 11.6355 9.90279 11.6008 9.68733 11.7735C8.85977 12.4369 7.81023 12.8334 6.66673 12.8334C3.99735 12.8334 1.8334 10.6695 1.8334 8.00008C1.8334 5.3307 3.99735 3.16675 6.66673 3.16675C7.81023 3.16675 8.85977 3.56323 9.68733 4.22662Z" fill="#153B56"/>
</g>
<defs>
<clipPath id="clip0_114_436">
<rect width="16" height="16" fill="white" transform="translate(16) rotate(90)"/>
</clipPath>
</defs>
</svg>
