<svg width="16" height="16" viewBox="0 0 16 16" fill="none" xmlns="http://www.w3.org/2000/svg">
<g clip-path="url(#clip0_114_430)">
<path d="M10.8742 1.98297C10.0039 1.56648 9.02913 1.33325 7.99992 1.33325C6.9707 1.33325 5.99596 1.56648 5.12566 1.98297M10.8742 1.98297C10.4714 2.3852 10.2221 2.94123 10.2221 3.55547C10.2221 4.78277 11.2171 5.7777 12.4444 5.7777C13.0586 5.7777 13.6146 5.52849 14.0169 5.12566M10.8742 1.98297C11.2762 1.5815 11.8313 1.33325 12.4444 1.33325C13.6717 1.33325 14.6666 2.32817 14.6666 3.55547C14.6666 4.16853 14.4183 4.72361 14.0169 5.12566M14.0169 5.12566C14.4334 5.99596 14.6666 6.9707 14.6666 7.99992C14.6666 9.02913 14.4334 10.0039 14.0169 10.8742M5.12566 1.98297C4.72361 1.5815 4.16853 1.33325 3.55547 1.33325C2.32817 1.33325 1.33325 2.32817 1.33325 3.55547C1.33325 4.16853 1.5815 4.72361 1.98297 5.12566M5.12566 1.98297C5.52849 2.3852 5.7777 2.94123 5.7777 3.55547C5.7777 4.78277 4.78277 5.7777 3.55547 5.7777C2.94123 5.7777 2.3852 5.52849 1.98297 5.12566M1.98297 5.12566C1.56648 5.99596 1.33325 6.9707 1.33325 7.99992C1.33325 9.02913 1.56648 10.0039 1.98297 10.8742M1.98297 10.8742C1.5815 11.2762 1.33325 11.8313 1.33325 12.4444C1.33325 13.6717 2.32817 14.6666 3.55547 14.6666C4.16853 14.6666 4.72361 14.4183 5.12566 14.0169M1.98297 10.8742C2.3852 10.4714 2.94123 10.2221 3.55547 10.2221C4.78277 10.2221 5.7777 11.2171 5.7777 12.4444C5.7777 13.0586 5.52849 13.6146 5.12566 14.0169M5.12566 14.0169C5.99596 14.4334 6.9707 14.6666 7.99992 14.6666C9.02913 14.6666 10.0039 14.4334 10.8742 14.0169M14.0169 10.8742C13.6146 10.4714 13.0586 10.2221 12.4444 10.2221C11.2171 10.2221 10.2221 11.2171 10.2221 12.4444C10.2221 13.0586 10.4714 13.6146 10.8742 14.0169M14.0169 10.8742C14.4183 11.2762 14.6666 11.8313 14.6666 12.4444C14.6666 13.6717 13.6717 14.6666 12.4444 14.6666C11.8313 14.6666 11.2762 14.4183 10.8742 14.0169" stroke="#153B56"/>
</g>
<defs>
<clipPath id="clip0_114_430">
<rect width="16" height="16" fill="white"/>
</clipPath>
</defs>
</svg>
