<svg width="24" height="24" viewBox="0 0 24 24" fill="none" xmlns="http://www.w3.org/2000/svg">
<path d="M6 2H18C20.2091 2 22 3.79086 22 6V18C22 20.2091 20.2091 22 18 22H6C3.79086 22 2 20.2091 2 18V17V12V7V6C2 3.79086 3.79086 2 6 2Z" stroke="#1A496B" stroke-width="1.5" stroke-linecap="round" stroke-linejoin="round"/>
<path d="M10 16L8 14M8 14L10 12M8 14H13C14.6569 14 16 12.6569 16 11V11C16 9.34315 14.6569 8 13 8H12" stroke="#1A496B" stroke-width="1.5" stroke-linecap="round" stroke-linejoin="round"/>
</svg>
