<svg width="62" height="62" viewBox="0 0 62 62" fill="none" xmlns="http://www.w3.org/2000/svg">
<path d="M42.6196 31.3718C42.6196 37.5838 37.5838 42.6196 31.3718 42.6196C25.1598 42.6196 20.124 37.5838 20.124 31.3718C20.124 25.1598 25.1598 20.124 31.3718 20.124C37.5838 20.124 42.6196 25.1598 42.6196 31.3718Z" fill="#2B82DA"/>
<path fill-rule="evenodd" clip-rule="evenodd" d="M33.4432 7.62402L54.4432 28.624H62L33.624 0.248024V7.62402H33.4432ZM28.624 0L0 28.624H7.55683L28.624 7.55683V0ZM7.80487 33.624H0.248047L28.624 62V54.4432L7.80487 33.624ZM61.752 33.624L33.624 61.752V54.1951L54.1952 33.624H61.752Z" fill="#2B82DA"/>
</svg>
